<svg width="144" height="24" viewBox="0 0 144 24" fill="none" xmlns="http://www.w3.org/2000/svg">
<path d="M6.69008 7.64H2.21008V5H14.4101V7.64H9.93008V19H6.69008V7.64ZM18.379 9.66C18.7523 9.14 19.2523 8.74667 19.879 8.48C20.519 8.21333 21.2523 8.08 22.079 8.08V10.96C21.7323 10.9333 21.499 10.92 21.379 10.92C20.4857 10.92 19.7857 11.1733 19.279 11.68C18.7723 12.1733 18.519 12.92 18.519 13.92V19H15.399V8.24H18.379V9.66ZM27.9155 8.08C29.5822 8.08 30.8622 8.48 31.7556 9.28C32.6489 10.0667 33.0956 11.26 33.0956 12.86V19H30.1755V17.66C29.5889 18.66 28.4955 19.16 26.8955 19.16C26.0689 19.16 25.3489 19.02 24.7355 18.74C24.1355 18.46 23.6755 18.0733 23.3555 17.58C23.0355 17.0867 22.8755 16.5267 22.8755 15.9C22.8755 14.9 23.2489 14.1133 23.9955 13.54C24.7555 12.9667 25.9222 12.68 27.4955 12.68H29.9755C29.9755 12 29.7689 11.48 29.3556 11.12C28.9422 10.7467 28.3222 10.56 27.4955 10.56C26.9222 10.56 26.3555 10.6533 25.7955 10.84C25.2489 11.0133 24.7822 11.2533 24.3955 11.56L23.2755 9.38C23.8622 8.96667 24.5622 8.64667 25.3755 8.42C26.2022 8.19333 27.0489 8.08 27.9155 8.08ZM27.6755 17.06C28.2089 17.06 28.6822 16.94 29.0955 16.7C29.5089 16.4467 29.8022 16.08 29.9755 15.6V14.5H27.8356C26.5555 14.5 25.9155 14.92 25.9155 15.76C25.9155 16.16 26.0689 16.48 26.3755 16.72C26.6955 16.9467 27.1289 17.06 27.6755 17.06ZM46.6965 4.16V19H43.7165V17.76C42.9432 18.6933 41.8232 19.16 40.3565 19.16C39.3432 19.16 38.4232 18.9333 37.5965 18.48C36.7832 18.0267 36.1432 17.38 35.6765 16.54C35.2098 15.7 34.9765 14.7267 34.9765 13.62C34.9765 12.5133 35.2098 11.54 35.6765 10.7C36.1432 9.86 36.7832 9.21333 37.5965 8.76C38.4232 8.30667 39.3432 8.08 40.3565 8.08C41.7298 8.08 42.8032 8.51333 43.5765 9.38V4.16H46.6965ZM40.8965 16.6C41.6832 16.6 42.3365 16.3333 42.8565 15.8C43.3765 15.2533 43.6365 14.5267 43.6365 13.62C43.6365 12.7133 43.3765 11.9933 42.8565 11.46C42.3365 10.9133 41.6832 10.64 40.8965 10.64C40.0965 10.64 39.4365 10.9133 38.9165 11.46C38.3965 11.9933 38.1365 12.7133 38.1365 13.62C38.1365 14.5267 38.3965 15.2533 38.9165 15.8C39.4365 16.3333 40.0965 16.6 40.8965 16.6ZM59.8241 13.66C59.8241 13.7 59.8041 13.98 59.7641 14.5H51.6241C51.7708 15.1667 52.1175 15.6933 52.6641 16.08C53.2108 16.4667 53.8908 16.66 54.7041 16.66C55.2641 16.66 55.7575 16.58 56.1841 16.42C56.6241 16.2467 57.0308 15.98 57.4041 15.62L59.0641 17.42C58.0508 18.58 56.5708 19.16 54.6241 19.16C53.4108 19.16 52.3375 18.9267 51.4041 18.46C50.4708 17.98 49.7508 17.32 49.2441 16.48C48.7375 15.64 48.4841 14.6867 48.4841 13.62C48.4841 12.5667 48.7308 11.62 49.2241 10.78C49.7308 9.92667 50.4175 9.26667 51.2841 8.8C52.1641 8.32 53.1441 8.08 54.2241 8.08C55.2775 8.08 56.2308 8.30667 57.0841 8.76C57.9375 9.21333 58.6041 9.86667 59.0841 10.72C59.5775 11.56 59.8241 12.54 59.8241 13.66ZM54.2441 10.44C53.5375 10.44 52.9441 10.64 52.4641 11.04C51.9841 11.44 51.6908 11.9867 51.5841 12.68H56.8841C56.7775 12 56.4841 11.46 56.0041 11.06C55.5241 10.6467 54.9375 10.44 54.2441 10.44ZM73.3254 8.08C74.3254 8.08 75.2321 8.31333 76.0454 8.78C76.8721 9.23333 77.5187 9.88 77.9854 10.72C78.4521 11.5467 78.6854 12.5133 78.6854 13.62C78.6854 14.7267 78.4521 15.7 77.9854 16.54C77.5187 17.3667 76.8721 18.0133 76.0454 18.48C75.2321 18.9333 74.3254 19.16 73.3254 19.16C71.8454 19.16 70.7187 18.6933 69.9454 17.76V19H66.9654V4.16H70.0854V9.38C70.8721 8.51333 71.9521 8.08 73.3254 8.08ZM72.7854 16.6C73.5854 16.6 74.2387 16.3333 74.7454 15.8C75.2654 15.2533 75.5254 14.5267 75.5254 13.62C75.5254 12.7133 75.2654 11.9933 74.7454 11.46C74.2387 10.9133 73.5854 10.64 72.7854 10.64C71.9854 10.64 71.3254 10.9133 70.8054 11.46C70.2987 11.9933 70.0454 12.7133 70.0454 13.62C70.0454 14.5267 70.2987 15.2533 70.8054 15.8C71.3254 16.3333 71.9854 16.6 72.7854 16.6ZM90.861 8.24L86.001 19.66C85.5077 20.9 84.8944 21.7733 84.161 22.28C83.441 22.7867 82.5677 23.04 81.541 23.04C80.981 23.04 80.4277 22.9533 79.881 22.78C79.3344 22.6067 78.8877 22.3667 78.541 22.06L79.681 19.84C79.921 20.0533 80.1944 20.22 80.501 20.34C80.821 20.46 81.1344 20.52 81.441 20.52C81.8677 20.52 82.2144 20.4133 82.481 20.2C82.7477 20 82.9877 19.66 83.201 19.18L83.241 19.08L78.581 8.24H81.801L84.821 15.54L87.861 8.24H90.861Z" fill="black"/>
<path d="M103.558 8.08C104.558 8.08 105.465 8.31333 106.278 8.78C107.105 9.23333 107.752 9.88 108.218 10.72C108.685 11.5467 108.918 12.5133 108.918 13.62C108.918 14.7267 108.685 15.7 108.218 16.54C107.752 17.3667 107.105 18.0133 106.278 18.48C105.465 18.9333 104.558 19.16 103.558 19.16C102.078 19.16 100.952 18.6933 100.178 17.76V19H97.1982V4.16H100.318V9.38C101.105 8.51333 102.185 8.08 103.558 8.08ZM103.018 16.6C103.818 16.6 104.472 16.3333 104.978 15.8C105.498 15.2533 105.758 14.5267 105.758 13.62C105.758 12.7133 105.498 11.9933 104.978 11.46C104.472 10.9133 103.818 10.64 103.018 10.64C102.218 10.64 101.558 10.9133 101.038 11.46C100.532 11.9933 100.278 12.7133 100.278 13.62C100.278 14.5267 100.532 15.2533 101.038 15.8C101.558 16.3333 102.218 16.6 103.018 16.6ZM114.871 8.08C116.538 8.08 117.818 8.48 118.711 9.28C119.604 10.0667 120.051 11.26 120.051 12.86V19H117.131V17.66C116.544 18.66 115.451 19.16 113.851 19.16C113.024 19.16 112.304 19.02 111.691 18.74C111.091 18.46 110.631 18.0733 110.311 17.58C109.991 17.0867 109.831 16.5267 109.831 15.9C109.831 14.9 110.204 14.1133 110.951 13.54C111.711 12.9667 112.878 12.68 114.451 12.68H116.931C116.931 12 116.724 11.48 116.311 11.12C115.898 10.7467 115.278 10.56 114.451 10.56C113.878 10.56 113.311 10.6533 112.751 10.84C112.204 11.0133 111.738 11.2533 111.351 11.56L110.231 9.38C110.818 8.96667 111.518 8.64667 112.331 8.42C113.158 8.19333 114.004 8.08 114.871 8.08ZM114.631 17.06C115.164 17.06 115.638 16.94 116.051 16.7C116.464 16.4467 116.758 16.08 116.931 15.6V14.5H114.791C113.511 14.5 112.871 14.92 112.871 15.76C112.871 16.16 113.024 16.48 113.331 16.72C113.651 16.9467 114.084 17.06 114.631 17.06ZM129.515 18.48C129.208 18.7067 128.828 18.88 128.375 19C127.935 19.1067 127.468 19.16 126.975 19.16C125.695 19.16 124.701 18.8333 123.995 18.18C123.301 17.5267 122.955 16.5667 122.955 15.3V10.88H121.295V8.48H122.955V5.86H126.075V8.48H128.755V10.88H126.075V15.26C126.075 15.7133 126.188 16.0667 126.415 16.32C126.655 16.56 126.988 16.68 127.415 16.68C127.908 16.68 128.328 16.5467 128.675 16.28L129.515 18.48ZM135.306 8.08C136.973 8.08 138.253 8.48 139.146 9.28C140.04 10.0667 140.486 11.26 140.486 12.86V19H137.566V17.66C136.98 18.66 135.886 19.16 134.286 19.16C133.46 19.16 132.74 19.02 132.126 18.74C131.526 18.46 131.066 18.0733 130.746 17.58C130.426 17.0867 130.266 16.5267 130.266 15.9C130.266 14.9 130.64 14.1133 131.386 13.54C132.146 12.9667 133.313 12.68 134.886 12.68H137.366C137.366 12 137.16 11.48 136.746 11.12C136.333 10.7467 135.713 10.56 134.886 10.56C134.313 10.56 133.746 10.6533 133.186 10.84C132.64 11.0133 132.173 11.2533 131.786 11.56L130.666 9.38C131.253 8.96667 131.953 8.64667 132.766 8.42C133.593 8.19333 134.44 8.08 135.306 8.08ZM135.066 17.06C135.6 17.06 136.073 16.94 136.486 16.7C136.9 16.4467 137.193 16.08 137.366 15.6V14.5H135.226C133.946 14.5 133.306 14.92 133.306 15.76C133.306 16.16 133.46 16.48 133.766 16.72C134.086 16.9467 134.52 17.06 135.066 17.06Z" fill="#4E55D7"/>
</svg>
